<svg xmlns="http://www.w3.org/2000/svg" viewBox="0 0 1200 900" role="img" aria-label="Renovation works drawing"><title>Renovation works drawing</title><defs><pattern id="g" width="40" height="40" patternUnits="userSpaceOnUse"><path d="M40 0H0V40" fill="none" stroke="#CFE0F0" stroke-opacity=".09"/></pattern><linearGradient id="bg" x1="0" y1="0" x2="1" y2="1"><stop offset="0" stop-color="#344A61"/><stop offset="1" stop-color="#2B3E52"/></linearGradient></defs><rect width="100%" height="100%" fill="url(#bg)"/><rect width="100%" height="100%" fill="url(#g)"/><line x1="600.0" y1="-16.0" x2="-466.9" y2="600.0" stroke="#CFE0F0" stroke-width="1" stroke-opacity="0.18"/><line x1="600.0" y1="-16.0" x2="1666.9" y2="600.0" stroke="#CFE0F0" stroke-width="1" stroke-opacity="0.18"/><line x1="676.2" y1="28.0" x2="-390.7" y2="644.0" stroke="#CFE0F0" stroke-width="1" stroke-opacity="0.18"/><line x1="523.8" y1="28.0" x2="1590.7" y2="644.0" stroke="#CFE0F0" stroke-width="1" stroke-opacity="0.18"/><line x1="752.4" y1="72.0" x2="-314.5" y2="688.0" stroke="#CFE0F0" stroke-width="1" stroke-opacity="0.18"/><line x1="447.6" y1="72.0" x2="1514.5" y2="688.0" stroke="#CFE0F0" stroke-width="1" stroke-opacity="0.18"/><line x1="828.6" y1="116.0" x2="-238.3" y2="732.0" stroke="#CFE0F0" stroke-width="1" stroke-opacity="0.18"/><line x1="371.4" y1="116.0" x2="1438.3" y2="732.0" stroke="#CFE0F0" stroke-width="1" stroke-opacity="0.18"/><line x1="904.8" y1="160.0" x2="-162.1" y2="776.0" stroke="#CFE0F0" stroke-width="1" stroke-opacity="0.18"/><line x1="295.2" y1="160.0" x2="1362.1" y2="776.0" stroke="#CFE0F0" stroke-width="1" stroke-opacity="0.18"/><line x1="981.1" y1="204.0" x2="-85.9" y2="820.0" stroke="#CFE0F0" stroke-width="1" stroke-opacity="0.18"/><line x1="218.9" y1="204.0" x2="1285.9" y2="820.0" stroke="#CFE0F0" stroke-width="1" stroke-opacity="0.18"/><line x1="1057.3" y1="248.0" x2="-9.7" y2="864.0" stroke="#CFE0F0" stroke-width="1" stroke-opacity="0.18"/><line x1="142.7" y1="248.0" x2="1209.7" y2="864.0" stroke="#CFE0F0" stroke-width="1" stroke-opacity="0.18"/><line x1="1133.5" y1="292.0" x2="66.5" y2="908.0" stroke="#CFE0F0" stroke-width="1" stroke-opacity="0.18"/><line x1="66.5" y1="292.0" x2="1133.5" y2="908.0" stroke="#CFE0F0" stroke-width="1" stroke-opacity="0.18"/><line x1="1209.7" y1="336.0" x2="142.7" y2="952.0" stroke="#CFE0F0" stroke-width="1" stroke-opacity="0.18"/><line x1="-9.7" y1="336.0" x2="1057.3" y2="952.0" stroke="#CFE0F0" stroke-width="1" stroke-opacity="0.18"/><line x1="1285.9" y1="380.0" x2="218.9" y2="996.0" stroke="#CFE0F0" stroke-width="1" stroke-opacity="0.18"/><line x1="-85.9" y1="380.0" x2="981.1" y2="996.0" stroke="#CFE0F0" stroke-width="1" stroke-opacity="0.18"/><line x1="1362.1" y1="424.0" x2="295.2" y2="1040.0" stroke="#CFE0F0" stroke-width="1" stroke-opacity="0.18"/><line x1="-162.1" y1="424.0" x2="904.8" y2="1040.0" stroke="#CFE0F0" stroke-width="1" stroke-opacity="0.18"/><line x1="1438.3" y1="468.0" x2="371.4" y2="1084.0" stroke="#CFE0F0" stroke-width="1" stroke-opacity="0.18"/><line x1="-238.3" y1="468.0" x2="828.6" y2="1084.0" stroke="#CFE0F0" stroke-width="1" stroke-opacity="0.18"/><line x1="1514.5" y1="512.0" x2="447.6" y2="1128.0" stroke="#CFE0F0" stroke-width="1" stroke-opacity="0.18"/><line x1="-314.5" y1="512.0" x2="752.4" y2="1128.0" stroke="#CFE0F0" stroke-width="1" stroke-opacity="0.18"/><line x1="1590.7" y1="556.0" x2="523.8" y2="1172.0" stroke="#CFE0F0" stroke-width="1" stroke-opacity="0.18"/><line x1="-390.7" y1="556.0" x2="676.2" y2="1172.0" stroke="#CFE0F0" stroke-width="1" stroke-opacity="0.18"/><line x1="1666.9" y1="600.0" x2="600.0" y2="1216.0" stroke="#CFE0F0" stroke-width="1" stroke-opacity="0.18"/><line x1="-466.9" y1="600.0" x2="600.0" y2="1216.0" stroke="#CFE0F0" stroke-width="1" stroke-opacity="0.18"/><polygon points="523.8,406.4 904.8,626.4 638.1,780.4 257.1,560.4" fill="#D3DBE1" fill-opacity="1" stroke="#CFE0F0" stroke-width="1.6" stroke-linejoin="round"/><polygon points="257.1,578.0 638.1,798.0 638.1,780.4 257.1,560.4" fill="#B9C3CB" fill-opacity="1" stroke="#CFE0F0" stroke-width="1.6" stroke-linejoin="round"/><polygon points="904.8,644.0 638.1,798.0 638.1,780.4 904.8,626.4" fill="#97A3AD" fill-opacity="1" stroke="#CFE0F0" stroke-width="1.6" stroke-linejoin="round"/><polygon points="523.8,300.8 752.4,432.8 523.8,564.8 295.2,432.8" fill="#EEF2F5" fill-opacity="1" stroke="#CFE0F0" stroke-width="1.6" stroke-linejoin="round"/><polygon points="295.2,556.0 523.8,688.0 523.8,564.8 295.2,432.8" fill="#DCE3E8" fill-opacity="1" stroke="#CFE0F0" stroke-width="1.6" stroke-linejoin="round"/><polygon points="752.4,556.0 523.8,688.0 523.8,564.8 752.4,432.8" fill="#B7C2CB" fill-opacity="1" stroke="#CFE0F0" stroke-width="1.6" stroke-linejoin="round"/><polygon points="304.7,541.7 368.2,578.4 368.2,494.8 304.7,458.1" fill="#9EC3E6" fill-opacity="0.55" stroke="#CFE0F0" stroke-width="1" stroke-linejoin="round"/><polygon points="377.7,583.9 441.2,620.5 441.2,536.9 377.7,500.3" fill="#9EC3E6" fill-opacity="0.55" stroke="#CFE0F0" stroke-width="1" stroke-linejoin="round"/><polygon points="450.8,626.0 514.3,662.7 514.3,579.1 450.8,542.4" fill="#9EC3E6" fill-opacity="0.55" stroke="#CFE0F0" stroke-width="1" stroke-linejoin="round"/><polygon points="752.4,309.6 874.4,380.0 645.7,512.0 523.8,441.6" fill="#EEF2F5" fill-opacity="1" stroke="#CFE0F0" stroke-width="1.6" stroke-linejoin="round"/><polygon points="523.8,688.0 645.7,758.4 645.7,512.0 523.8,441.6" fill="#DCE3E8" fill-opacity="1" stroke="#CFE0F0" stroke-width="1.6" stroke-linejoin="round"/><polygon points="874.4,626.4 645.7,758.4 645.7,512.0 874.4,380.0" fill="#B7C2CB" fill-opacity="1" stroke="#CFE0F0" stroke-width="1.6" stroke-linejoin="round"/><polygon points="864.8,612.1 764.8,669.9 764.8,586.2 864.8,528.5" fill="#7FA9CF" fill-opacity="0.5" stroke="#CFE0F0" stroke-width="1" stroke-linejoin="round"/><polygon points="755.3,675.4 655.3,733.1 655.3,649.5 755.3,591.8" fill="#7FA9CF" fill-opacity="0.5" stroke="#CFE0F0" stroke-width="1" stroke-linejoin="round"/><polygon points="864.8,488.9 764.8,546.6 764.8,463.1 864.8,405.3" fill="#7FA9CF" fill-opacity="0.5" stroke="#CFE0F0" stroke-width="1" stroke-linejoin="round"/><polygon points="755.3,552.1 655.3,609.9 655.3,526.3 755.3,468.6" fill="#7FA9CF" fill-opacity="0.5" stroke="#CFE0F0" stroke-width="1" stroke-linejoin="round"/><polygon points="533.3,550.5 636.2,609.9 636.2,526.3 533.3,466.9" fill="#9EC3E6" fill-opacity="0.55" stroke="#CFE0F0" stroke-width="1" stroke-linejoin="round"/><polygon points="523.8,270.0 775.3,415.2 516.2,564.8 264.7,419.6" fill="#4A5764" fill-opacity="1" stroke="#CFE0F0" stroke-width="1.6" stroke-linejoin="round"/><polygon points="264.7,432.8 516.2,578.0 516.2,564.8 264.7,419.6" fill="#3B4752" fill-opacity="1" stroke="#CFE0F0" stroke-width="1.6" stroke-linejoin="round"/><polygon points="775.3,428.4 516.2,578.0 516.2,564.8 775.3,415.2" fill="#2C3640" fill-opacity="1" stroke="#CFE0F0" stroke-width="1.6" stroke-linejoin="round"/><polygon points="756.2,281.0 901.0,364.6 641.9,514.2 497.1,430.6" fill="#4A5764" fill-opacity="1" stroke="#CFE0F0" stroke-width="1.6" stroke-linejoin="round"/><polygon points="497.1,443.8 641.9,527.4 641.9,514.2 497.1,430.6" fill="#3B4752" fill-opacity="1" stroke="#CFE0F0" stroke-width="1.6" stroke-linejoin="round"/><polygon points="901.0,377.8 641.9,527.4 641.9,514.2 901.0,364.6" fill="#2C3640" fill-opacity="1" stroke="#CFE0F0" stroke-width="1.6" stroke-linejoin="round"/><polygon points="371.4,593.4 455.2,641.8 394.2,677.0 310.4,628.6" fill="#FFC233" fill-opacity="1" stroke="#CFE0F0" stroke-width="1.6" stroke-linejoin="round"/><polygon points="310.4,635.2 394.2,683.6 394.2,677.0 310.4,628.6" fill="#F2A900" fill-opacity="1" stroke="#CFE0F0" stroke-width="1.6" stroke-linejoin="round"/><polygon points="455.2,648.4 394.2,683.6 394.2,677.0 455.2,641.8" fill="#C98A00" fill-opacity="1" stroke="#CFE0F0" stroke-width="1.6" stroke-linejoin="round"/><polygon points="161.8,514.2 196.1,534.0 161.8,553.8 127.5,534.0" fill="#4F9461" fill-opacity="1" stroke="#CFE0F0" stroke-width="1.6" stroke-linejoin="round"/><polygon points="127.5,586.8 161.8,606.6 161.8,553.8 127.5,534.0" fill="#3E7A4F" fill-opacity="1" stroke="#CFE0F0" stroke-width="1.6" stroke-linejoin="round"/><polygon points="196.1,586.8 161.8,606.6 161.8,553.8 196.1,534.0" fill="#2F6140" fill-opacity="1" stroke="#CFE0F0" stroke-width="1.6" stroke-linejoin="round"/><polygon points="664.8,782.6 699.1,802.4 664.8,822.2 630.5,802.4" fill="#4F9461" fill-opacity="1" stroke="#CFE0F0" stroke-width="1.6" stroke-linejoin="round"/><polygon points="630.5,855.2 664.8,875.0 664.8,822.2 630.5,802.4" fill="#3E7A4F" fill-opacity="1" stroke="#CFE0F0" stroke-width="1.6" stroke-linejoin="round"/><polygon points="699.1,855.2 664.8,875.0 664.8,822.2 699.1,802.4" fill="#2F6140" fill-opacity="1" stroke="#CFE0F0" stroke-width="1.6" stroke-linejoin="round"/><polygon points="923.9,646.2 958.2,666.0 923.9,685.8 889.6,666.0" fill="#4F9461" fill-opacity="1" stroke="#CFE0F0" stroke-width="1.6" stroke-linejoin="round"/><polygon points="889.6,718.8 923.9,738.6 923.9,685.8 889.6,666.0" fill="#3E7A4F" fill-opacity="1" stroke="#CFE0F0" stroke-width="1.6" stroke-linejoin="round"/><polygon points="958.2,718.8 923.9,738.6 923.9,685.8 958.2,666.0" fill="#2F6140" fill-opacity="1" stroke="#CFE0F0" stroke-width="1.6" stroke-linejoin="round"/><line x1="249.4" y1="582.4" x2="249.4" y2="292.0" stroke="#F2A900" stroke-width="2" stroke-opacity="1"/><line x1="325.6" y1="626.4" x2="325.6" y2="336.0" stroke="#F2A900" stroke-width="2" stroke-opacity="1"/><line x1="401.9" y1="670.4" x2="401.9" y2="380.0" stroke="#F2A900" stroke-width="2" stroke-opacity="1"/><line x1="478.1" y1="714.4" x2="478.1" y2="424.0" stroke="#F2A900" stroke-width="2" stroke-opacity="1"/><line x1="554.3" y1="758.4" x2="554.3" y2="468.0" stroke="#F2A900" stroke-width="2" stroke-opacity="1"/><line x1="630.5" y1="802.4" x2="630.5" y2="512.0" stroke="#F2A900" stroke-width="2" stroke-opacity="1"/><line x1="249.4" y1="582.4" x2="630.5" y2="802.4" stroke="#F2A900" stroke-width="2" stroke-opacity="1"/><line x1="249.4" y1="512.0" x2="630.5" y2="732.0" stroke="#F2A900" stroke-width="2" stroke-opacity="1"/><line x1="249.4" y1="441.6" x2="630.5" y2="661.6" stroke="#F2A900" stroke-width="2" stroke-opacity="1"/><line x1="249.4" y1="371.2" x2="630.5" y2="591.2" stroke="#F2A900" stroke-width="2" stroke-opacity="1"/><line x1="249.4" y1="300.8" x2="630.5" y2="520.8" stroke="#F2A900" stroke-width="2" stroke-opacity="1"/><line x1="249.4" y1="582.4" x2="630.5" y2="520.8" stroke="#F2A900" stroke-width="1.2" stroke-opacity="0.7"/><line x1="257.1" y1="578.0" x2="173.2" y2="626.4" stroke="#F2A900" stroke-width="1" stroke-opacity="0.8"/><line x1="638.1" y1="798.0" x2="554.3" y2="846.4" stroke="#F2A900" stroke-width="1" stroke-opacity="0.8"/><line x1="173.2" y1="626.4" x2="554.3" y2="846.4" stroke="#F2A900" stroke-width="1.4" stroke-opacity="1"/></svg>